# xmcd
# 
# Track frame offsets:
#     150
#     20569
#     37088
#     50120
#     66243
#     85333
#     101883
#     122465
#     139199
#     153353
#     168161
# 
# Disc length: 2493
# 
# Revision: 2
# Processed by: cddbd v1.5.2PL0 Copyright (c) Steve Scherf et al.
# Submitted via: fre:ac v1.0.31
# 
DISCID=9709bb0b
DTITLE=Orianthi - Heaven in This Hell
DYEAR=2013
DGENRE=Rock
TTITLE0=Heaven in This Hell
TTITLE1=You Don't Wanna Know
TTITLE2=Fire
TTITLE3=If U Think U Know Me
TTITLE4=How Do You Sleep?
TTITLE5=Frozen
TTITLE6=Rock
TTITLE7=Another You
TTITLE8=How Does That Feel?
TTITLE9=Filthy Blues
TTITLE10=If U Were Here with Me
EXTD=
EXTT0=
EXTT1=
EXTT2=
EXTT3=
EXTT4=
EXTT5=
EXTT6=
EXTT7=
EXTT8=
EXTT9=
EXTT10=
PLAYORDER=
